<svg width="32.091" height="37.484" viewBox="0 0 32.091 37.484" xmlns="http://www.w3.org/2000/svg"><g id="svgGroup" stroke-linecap="round" fill-rule="evenodd" font-size="9pt" stroke="#000000" stroke-width="0.25mm" fill="#ffffff" style="stroke:#000000;stroke-width:0.25mm;fill:#ffffff"><path d="M 0.628 6.75 A 10.268 10.268 0 0 0 0.39 9.004 Q 0.39 11.404 2.19 13.329 A 11.217 11.217 0 0 0 4.097 14.952 A 13.714 13.714 0 0 0 6.79 16.354 Q 8.39 16.954 10.165 17.829 A 26.206 26.206 0 0 1 10.927 18.22 A 22.854 22.854 0 0 1 13.415 19.754 A 13.812 13.812 0 0 1 14.451 20.566 A 11.032 11.032 0 0 1 15.865 22.029 A 6.212 6.212 0 0 1 15.913 22.09 Q 16.268 22.548 16.487 23.009 A 3.456 3.456 0 0 1 16.84 24.504 A 5.259 5.259 0 0 1 16.82 24.962 A 4.328 4.328 0 0 1 16.365 26.579 Q 15.89 27.504 15.09 28.129 A 5.655 5.655 0 0 1 14.607 28.467 A 6.357 6.357 0 0 1 13.24 29.104 Q 12.19 29.454 11.04 29.504 A 5.377 5.377 0 0 1 10.724 29.513 Q 9.999 29.513 9.14 29.329 Q 8.09 29.104 7.115 28.604 A 7.448 7.448 0 0 1 6.873 28.474 A 8.051 8.051 0 0 1 5.29 27.304 Q 4.44 26.504 3.94 25.354 Q 3.865 25.204 3.748 24.913 A 18.24 18.24 0 0 1 3.665 24.704 A 8.05 8.05 0 0 0 3.548 24.42 A 9.436 9.436 0 0 0 3.24 23.779 Q 2.99 23.304 2.64 22.929 A 1.748 1.748 0 0 0 2.498 22.792 Q 2.219 22.554 1.94 22.554 Q 1.59 22.554 1.215 22.829 A 2.369 2.369 0 0 0 0.838 23.178 A 3.171 3.171 0 0 0 0.54 23.579 Q 0.24 24.054 0.09 24.704 Q -0.06 25.354 0.04 26.104 Q 0.34 28.154 1.515 29.579 Q 2.69 31.004 4.29 31.904 A 11.575 11.575 0 0 0 4.491 32.015 A 12.288 12.288 0 0 0 7.79 33.204 Q 9.479 33.56 11.049 33.56 A 13.681 13.681 0 0 0 11.44 33.554 A 13.199 13.199 0 0 0 13 33.431 A 10.485 10.485 0 0 0 15.665 32.704 A 12.068 12.068 0 0 0 16.728 32.189 A 9.864 9.864 0 0 0 18.84 30.654 Q 20.14 29.404 20.84 27.879 Q 21.54 26.354 21.54 24.754 A 11.144 11.144 0 0 0 21.441 23.24 A 8.487 8.487 0 0 0 20.94 21.279 Q 20.34 19.754 19.315 18.579 Q 18.29 17.404 16.94 16.504 Q 15.59 15.604 14.09 14.854 Q 12.59 14.104 11.065 13.479 A 217.508 217.508 0 0 1 10.31 13.168 A 193.439 193.439 0 0 1 8.14 12.254 Q 6.84 11.654 5.74 10.629 Q 4.64 9.604 4.64 8.204 Q 4.64 7.404 5.04 6.629 A 3.794 3.794 0 0 1 5.462 5.984 A 4.512 4.512 0 0 1 6.215 5.254 A 4.872 4.872 0 0 1 7.144 4.694 A 6.615 6.615 0 0 1 8.14 4.329 Q 9.137 4.047 10.396 4.047 A 11.821 11.821 0 0 1 10.79 4.054 Q 11.473 4.084 12.253 4.281 A 11.089 11.089 0 0 1 13.365 4.629 A 9.942 9.942 0 0 1 14.147 4.955 A 8.218 8.218 0 0 1 15.84 6.004 A 2.541 2.541 0 0 0 16.036 6.144 Q 16.245 6.281 16.54 6.429 Q 16.99 6.654 17.49 6.779 A 4.479 4.479 0 0 0 17.677 6.821 A 3.919 3.919 0 0 0 18.465 6.904 A 1.504 1.504 0 0 0 18.774 6.874 A 1.052 1.052 0 0 0 19.24 6.654 A 1.19 1.19 0 0 0 19.292 6.617 Q 19.689 6.321 19.665 5.804 A 2.725 2.725 0 0 0 19.573 5.224 A 3.601 3.601 0 0 0 19.365 4.654 Q 19.09 4.054 18.665 3.504 A 8.9 8.9 0 0 0 18.435 3.219 Q 18.292 3.047 18.157 2.908 A 3.887 3.887 0 0 0 17.89 2.654 A 6.543 6.543 0 0 0 17.354 2.198 Q 16.406 1.472 14.99 0.879 A 10.738 10.738 0 0 0 13.129 0.297 A 13.673 13.673 0 0 0 10.79 0.004 Q 10.028 -0.013 9.306 0.042 A 12.423 12.423 0 0 0 6.64 0.529 A 10.864 10.864 0 0 0 5.945 0.765 A 9.185 9.185 0 0 0 3.34 2.254 Q 1.94 3.404 1.165 5.129 A 8.474 8.474 0 0 0 0.628 6.75 Z M 29.878 30.93 A 7.813 7.813 0 0 0 28.74 30.854 A 5.281 5.281 0 0 0 28.083 30.892 Q 27.636 30.949 27.285 31.087 A 1.861 1.861 0 0 0 26.265 31.979 Q 25.915 32.665 25.778 33.545 A 7.878 7.878 0 0 0 25.69 34.754 A 2.858 2.858 0 0 0 25.796 35.512 A 3.794 3.794 0 0 0 26.065 36.204 Q 26.44 36.954 27.14 37.404 A 0.31 0.31 0 0 0 27.203 37.435 Q 27.373 37.5 27.765 37.479 A 10.934 10.934 0 0 0 28.195 37.448 A 13.793 13.793 0 0 0 28.79 37.379 Q 29.34 37.304 29.84 37.179 Q 30.199 37.089 30.43 37.012 A 2.969 2.969 0 0 0 30.59 36.954 Q 31.184 36.717 31.513 36.241 A 2.198 2.198 0 0 0 31.84 35.479 A 7.925 7.925 0 0 0 31.882 35.288 Q 31.99 34.764 32.042 34.167 A 13.442 13.442 0 0 0 32.09 33.004 A 1.925 1.925 0 0 0 31.783 31.899 Q 31.266 31.135 29.878 30.93 Z" vector-effect="non-scaling-stroke"/></g></svg>