<svg width="142.441" height="46.144" viewBox="0 0 142.441 46.144" xmlns="http://www.w3.org/2000/svg"><g id="svgGroup" stroke-linecap="round" fill-rule="evenodd" font-size="9pt" stroke="#ffffff" stroke-width="0.25mm" fill="#ffffff" style="stroke:#ffffff;stroke-width:0.25mm;fill:#ffffff"><path d="M 0.628 6.75 A 10.268 10.268 0 0 0 0.39 9.004 Q 0.39 11.404 2.19 13.329 A 11.217 11.217 0 0 0 4.097 14.952 A 13.714 13.714 0 0 0 6.79 16.354 Q 8.39 16.954 10.165 17.829 A 26.206 26.206 0 0 1 10.927 18.22 A 22.854 22.854 0 0 1 13.415 19.754 A 13.812 13.812 0 0 1 14.451 20.566 A 11.032 11.032 0 0 1 15.865 22.029 A 6.212 6.212 0 0 1 15.913 22.09 Q 16.268 22.548 16.487 23.009 A 3.456 3.456 0 0 1 16.84 24.504 A 5.259 5.259 0 0 1 16.82 24.962 A 4.328 4.328 0 0 1 16.365 26.579 Q 15.89 27.504 15.09 28.129 A 5.655 5.655 0 0 1 14.607 28.467 A 6.357 6.357 0 0 1 13.24 29.104 Q 12.19 29.454 11.04 29.504 A 5.377 5.377 0 0 1 10.724 29.513 Q 9.999 29.513 9.14 29.329 Q 8.09 29.104 7.115 28.604 A 7.448 7.448 0 0 1 6.873 28.474 A 8.051 8.051 0 0 1 5.29 27.304 Q 4.44 26.504 3.94 25.354 Q 3.865 25.204 3.748 24.913 A 18.24 18.24 0 0 1 3.665 24.704 A 8.05 8.05 0 0 0 3.548 24.42 A 9.436 9.436 0 0 0 3.24 23.779 Q 2.99 23.304 2.64 22.929 A 1.748 1.748 0 0 0 2.498 22.792 Q 2.219 22.554 1.94 22.554 Q 1.59 22.554 1.215 22.829 A 2.369 2.369 0 0 0 0.838 23.178 A 3.171 3.171 0 0 0 0.54 23.579 Q 0.24 24.054 0.09 24.704 Q -0.06 25.354 0.04 26.104 Q 0.34 28.154 1.515 29.579 Q 2.69 31.004 4.29 31.904 A 11.575 11.575 0 0 0 4.491 32.015 A 12.288 12.288 0 0 0 7.79 33.204 Q 9.479 33.56 11.049 33.56 A 13.681 13.681 0 0 0 11.44 33.554 A 13.199 13.199 0 0 0 13 33.431 A 10.485 10.485 0 0 0 15.665 32.704 A 12.068 12.068 0 0 0 16.728 32.189 A 9.864 9.864 0 0 0 18.84 30.654 Q 20.14 29.404 20.84 27.879 Q 21.54 26.354 21.54 24.754 A 11.144 11.144 0 0 0 21.441 23.24 A 8.487 8.487 0 0 0 20.94 21.279 Q 20.34 19.754 19.315 18.579 Q 18.29 17.404 16.94 16.504 Q 15.59 15.604 14.09 14.854 Q 12.59 14.104 11.065 13.479 A 217.508 217.508 0 0 1 10.31 13.168 A 193.439 193.439 0 0 1 8.14 12.254 Q 6.84 11.654 5.74 10.629 Q 4.64 9.604 4.64 8.204 Q 4.64 7.404 5.04 6.629 A 3.794 3.794 0 0 1 5.462 5.984 A 4.512 4.512 0 0 1 6.215 5.254 A 4.872 4.872 0 0 1 7.144 4.694 A 6.615 6.615 0 0 1 8.14 4.329 Q 9.137 4.047 10.396 4.047 A 11.821 11.821 0 0 1 10.79 4.054 Q 11.473 4.084 12.253 4.281 A 11.089 11.089 0 0 1 13.365 4.629 A 9.942 9.942 0 0 1 14.147 4.955 A 8.218 8.218 0 0 1 15.84 6.004 A 2.541 2.541 0 0 0 16.036 6.144 Q 16.245 6.281 16.54 6.429 Q 16.99 6.654 17.49 6.779 A 4.479 4.479 0 0 0 17.677 6.821 A 3.919 3.919 0 0 0 18.465 6.904 A 1.504 1.504 0 0 0 18.774 6.874 A 1.052 1.052 0 0 0 19.24 6.654 A 1.19 1.19 0 0 0 19.292 6.617 Q 19.689 6.321 19.665 5.804 A 2.725 2.725 0 0 0 19.573 5.224 A 3.601 3.601 0 0 0 19.365 4.654 Q 19.09 4.054 18.665 3.504 A 8.9 8.9 0 0 0 18.435 3.219 Q 18.292 3.047 18.157 2.908 A 3.887 3.887 0 0 0 17.89 2.654 A 6.543 6.543 0 0 0 17.354 2.198 Q 16.406 1.472 14.99 0.879 A 10.738 10.738 0 0 0 13.129 0.297 A 13.673 13.673 0 0 0 10.79 0.004 Q 10.028 -0.013 9.306 0.042 A 12.423 12.423 0 0 0 6.64 0.529 A 10.864 10.864 0 0 0 5.945 0.765 A 9.185 9.185 0 0 0 3.34 2.254 Q 1.94 3.404 1.165 5.129 A 8.474 8.474 0 0 0 0.628 6.75 Z M 114.54 44.304 L 115.34 43.304 A 6.424 6.424 0 0 0 115.479 43.124 Q 115.587 42.979 115.665 42.854 Q 115.79 42.654 115.84 42.554 A 44.222 44.222 0 0 0 116.236 41.782 Q 116.41 41.435 116.598 41.047 A 87.207 87.207 0 0 0 116.99 40.229 Q 117.64 38.854 118.24 37.454 Q 118.84 36.054 119.34 34.779 Q 119.787 33.638 120.035 32.878 A 15.984 15.984 0 0 0 120.09 32.704 Q 119.952 32.29 119.559 31.345 A 71.437 71.437 0 0 0 119.49 31.179 A 54.902 54.902 0 0 0 119.124 30.327 Q 118.796 29.579 118.39 28.704 A 182.684 182.684 0 0 0 117.709 27.254 A 225.781 225.781 0 0 0 116.965 25.704 Q 116.19 24.104 115.39 22.554 A 78.933 78.933 0 0 0 114.4 20.695 A 66.492 66.492 0 0 0 113.815 19.654 Q 113.04 18.304 112.39 17.404 A 6.188 6.188 0 0 0 112.141 17.059 A 7.936 7.936 0 0 0 111.915 16.779 Q 111.64 16.454 111.365 16.079 Q 111.09 15.704 110.94 15.354 Q 110.79 15.004 110.89 14.704 Q 110.99 14.354 111.99 14.354 Q 112.99 14.354 114.19 14.604 Q 115.39 14.854 116.49 15.354 A 5.483 5.483 0 0 1 117.018 15.627 Q 117.542 15.938 117.788 16.284 A 1.302 1.302 0 0 1 117.89 16.454 Q 119.44 19.304 120.59 22.304 Q 121.577 24.879 122.049 27.012 A 21.978 21.978 0 0 1 122.19 27.704 Q 122.89 26.104 123.59 24.129 Q 124.29 22.154 124.89 20.179 Q 125.49 18.204 125.99 16.404 Q 126.465 14.694 126.76 13.525 A 65.527 65.527 0 0 0 126.79 13.404 Q 126.692 13.109 126.642 12.379 A 13.821 13.821 0 0 1 126.64 12.354 Q 126.594 11.66 126.654 10.902 A 11.525 11.525 0 0 1 126.665 10.779 A 10.895 10.895 0 0 1 126.794 9.82 A 8.855 8.855 0 0 1 126.915 9.254 A 2.297 2.297 0 0 1 127.017 8.938 Q 127.163 8.582 127.4 8.446 A 0.617 0.617 0 0 1 127.49 8.404 A 0.821 0.821 0 0 1 127.827 8.334 Q 128.078 8.334 128.376 8.468 A 2.418 2.418 0 0 1 128.59 8.579 A 6.14 6.14 0 0 1 129.393 9.136 A 7.652 7.652 0 0 1 129.865 9.554 Q 130.49 10.154 130.99 10.829 A 12.922 12.922 0 0 1 131.218 11.146 Q 131.432 11.455 131.552 11.675 A 2.176 2.176 0 0 1 131.64 11.854 Q 132.14 13.054 131.84 14.104 Q 131.54 15.154 131.14 16.304 Q 130.737 17.646 130.055 19.628 A 165.314 165.314 0 0 1 129.89 20.104 A 119.746 119.746 0 0 1 129.028 22.498 A 153.463 153.463 0 0 1 128.04 25.079 A 291.683 291.683 0 0 1 126.107 29.875 A 320.133 320.133 0 0 1 125.815 30.579 A 172.794 172.794 0 0 1 123.59 35.7 A 158.253 158.253 0 0 1 123.44 36.029 A 90.719 90.719 0 0 1 122.246 38.542 A 71.919 71.919 0 0 1 121.065 40.829 A 46.413 46.413 0 0 1 120.284 42.221 Q 119.563 43.451 118.94 44.304 A 1.801 1.801 0 0 1 118.736 44.539 Q 118.485 44.785 118.065 45.054 A 7.973 7.973 0 0 1 116.978 45.633 A 9.109 9.109 0 0 1 116.69 45.754 A 5.779 5.779 0 0 1 115.693 46.056 A 4.981 4.981 0 0 1 115.215 46.129 Q 114.49 46.204 114.04 45.904 Q 113.769 45.724 113.906 45.34 A 1.199 1.199 0 0 1 113.94 45.254 A 3.545 3.545 0 0 1 114.153 44.851 Q 114.275 44.652 114.431 44.444 A 6.216 6.216 0 0 1 114.54 44.304 Z M 55.74 14.604 L 55.74 14.704 A 2.69 2.69 0 0 1 56.095 14.28 Q 56.277 14.101 56.506 13.932 A 4.756 4.756 0 0 1 56.615 13.854 A 7.554 7.554 0 0 1 57.862 13.155 A 7.882 7.882 0 0 1 57.865 13.154 Q 58.54 12.854 59.29 12.679 A 7.411 7.411 0 0 1 59.918 12.559 Q 60.303 12.504 60.64 12.504 Q 64.69 12.504 66.765 15.154 A 8.322 8.322 0 0 1 68.06 17.622 Q 68.816 19.84 68.839 23.046 A 28.214 28.214 0 0 1 68.84 23.254 A 26.638 26.638 0 0 1 68.715 25.804 Q 68.59 27.104 68.565 28.454 A 24.228 24.228 0 0 0 68.561 28.903 A 22.989 22.989 0 0 0 68.665 31.104 Q 68.79 32.404 69.29 33.654 A 23.838 23.838 0 0 1 69.446 33.973 A 32.647 32.647 0 0 1 69.615 34.329 Q 69.79 34.704 69.94 35.079 Q 70.061 35.383 70.085 35.637 A 1.292 1.292 0 0 1 70.09 35.754 A 0.604 0.604 0 0 1 69.892 36.209 A 0.819 0.819 0 0 1 69.84 36.254 A 0.575 0.575 0 0 1 69.662 36.342 Q 69.5 36.392 69.268 36.381 A 1.926 1.926 0 0 1 69.24 36.379 A 3.783 3.783 0 0 1 68.747 36.314 A 4.771 4.771 0 0 1 68.39 36.229 Q 67.94 36.104 67.515 35.954 A 4.365 4.365 0 0 1 67.283 35.865 Q 67.067 35.775 66.933 35.684 A 1.032 1.032 0 0 1 66.89 35.654 A 3.922 3.922 0 0 1 65.751 34.473 A 4.93 4.93 0 0 1 65.465 33.954 A 9.065 9.065 0 0 1 64.916 32.472 A 11.196 11.196 0 0 1 64.69 31.479 A 19.609 19.609 0 0 1 64.392 28.675 A 21.411 21.411 0 0 1 64.39 28.629 Q 64.34 27.154 64.34 25.804 Q 64.34 24.254 64.19 22.779 A 11.607 11.607 0 0 0 63.946 21.296 A 9.06 9.06 0 0 0 63.59 20.129 A 5.535 5.535 0 0 0 62.923 18.875 A 4.754 4.754 0 0 0 62.315 18.179 A 3.39 3.39 0 0 0 60.852 17.379 A 4.514 4.514 0 0 0 60.19 17.254 A 5.738 5.738 0 0 0 59.668 17.224 Q 58.916 17.213 58.015 17.379 A 3.504 3.504 0 0 0 56.194 18.332 A 4.547 4.547 0 0 0 55.89 18.654 Q 55.89 21.354 55.84 24.079 Q 55.79 26.804 55.69 29.654 A 12.011 12.011 0 0 1 55.518 31.338 A 9.897 9.897 0 0 1 55.29 32.329 A 11.249 11.249 0 0 1 54.896 33.479 A 8.564 8.564 0 0 1 54.415 34.479 A 6.705 6.705 0 0 1 53.972 35.165 Q 53.72 35.504 53.448 35.764 A 3.783 3.783 0 0 1 53.265 35.929 Q 52.691 36.411 52.096 36.451 A 1.605 1.605 0 0 1 51.99 36.454 A 0.319 0.319 0 0 1 51.73 36.31 Q 51.552 36.075 51.49 35.454 A 15.4 15.4 0 0 1 51.431 34.616 Q 51.4 33.932 51.415 33.129 Q 51.44 31.804 51.515 30.454 A 73.921 73.921 0 0 0 51.548 29.817 Q 51.59 28.917 51.59 28.354 A 265.574 265.574 0 0 1 51.632 23.699 A 302.677 302.677 0 0 1 51.665 22.079 A 67.137 67.137 0 0 0 51.682 20.542 Q 51.682 18.752 51.591 16.829 A 92.013 92.013 0 0 0 51.49 15.054 Q 50.79 14.604 50.215 13.954 Q 49.64 13.304 49.44 12.454 Q 49.406 12.32 49.395 12.129 A 3.475 3.475 0 0 1 49.39 11.929 A 3.845 3.845 0 0 1 49.428 11.379 A 3.499 3.499 0 0 1 49.44 11.304 A 1.843 1.843 0 0 1 49.512 11.015 A 1.43 1.43 0 0 1 49.615 10.779 A 0.474 0.474 0 0 1 49.718 10.649 Q 49.818 10.563 49.96 10.555 A 0.531 0.531 0 0 1 49.99 10.554 Q 50.177 10.554 50.419 10.61 A 3.382 3.382 0 0 1 50.59 10.654 Q 50.94 10.754 51.24 10.854 A 27.599 27.599 0 0 0 51.524 10.974 Q 51.651 11.026 51.792 11.084 A 54.242 54.242 0 0 0 52.09 11.204 Q 52.59 11.404 53.09 11.629 Q 53.59 11.854 54.065 12.104 Q 54.407 12.284 54.658 12.438 A 5.698 5.698 0 0 1 54.84 12.554 Q 55.29 12.904 55.515 13.379 A 2.089 2.089 0 0 1 55.661 13.81 Q 55.74 14.159 55.74 14.604 Z M 40.44 20.904 L 40.44 18.754 A 7.83 7.83 0 0 0 40.176 16.763 A 8.749 8.749 0 0 0 40.14 16.629 Q 39.84 15.554 39.19 14.679 A 4.816 4.816 0 0 0 37.808 13.434 A 5.709 5.709 0 0 0 37.49 13.254 Q 36.44 12.704 34.89 12.704 Q 33.64 12.704 32.465 12.904 A 25.668 25.668 0 0 0 31.49 13.089 Q 31.045 13.182 30.649 13.285 A 15.159 15.159 0 0 0 30.39 13.354 A 18.26 18.26 0 0 1 29.659 13.527 Q 27.648 13.957 26.893 13.556 A 0.802 0.802 0 0 1 26.49 13.104 Q 26.29 12.504 26.89 11.704 Q 27.371 11.063 28.253 10.486 A 9.032 9.032 0 0 1 28.715 10.204 A 11.181 11.181 0 0 1 29.973 9.592 Q 30.64 9.315 31.41 9.08 A 18.966 18.966 0 0 1 31.665 9.004 A 12.625 12.625 0 0 1 34.069 8.563 A 15.521 15.521 0 0 1 35.44 8.504 Q 37.49 8.504 39.215 9.204 A 9.199 9.199 0 0 1 41.767 10.741 A 8.642 8.642 0 0 1 42.19 11.129 Q 43.44 12.354 44.14 14.004 A 8.957 8.957 0 0 1 44.839 17.406 A 10.237 10.237 0 0 1 44.84 17.554 L 44.84 28.454 Q 44.84 29.125 44.88 30.156 A 87.047 87.047 0 0 0 44.89 30.404 Q 44.94 31.604 45.19 32.554 A 10.841 10.841 0 0 1 45.29 32.958 Q 45.503 33.9 45.364 34.238 A 0.347 0.347 0 0 1 45.29 34.354 Q 45.04 34.554 44.515 34.529 Q 43.99 34.504 43.49 34.304 A 2.338 2.338 0 0 1 42.936 33.992 Q 42.571 33.721 42.215 33.279 Q 41.59 32.504 41.14 31.204 Q 40.89 31.504 40.265 31.979 A 7.691 7.691 0 0 1 39.68 32.38 Q 39.363 32.577 38.99 32.775 A 14.512 14.512 0 0 1 38.69 32.929 Q 37.74 33.404 36.565 33.754 A 9.92 9.92 0 0 1 34.252 34.147 A 11.023 11.023 0 0 1 34.09 34.154 Q 31.49 34.204 29.69 33.629 A 9.827 9.827 0 0 1 28.245 33.045 Q 27.477 32.657 26.886 32.158 A 5.985 5.985 0 0 1 26.765 32.054 A 6.152 6.152 0 0 1 25.294 30.135 A 5.931 5.931 0 0 1 25.115 29.729 Q 24.59 28.404 24.54 26.954 A 7.493 7.493 0 0 1 24.536 26.704 A 7.559 7.559 0 0 1 25.04 24.004 Q 25.59 22.554 26.79 21.454 A 7.527 7.527 0 0 1 28.312 20.385 A 10.429 10.429 0 0 1 29.89 19.704 A 10.532 10.532 0 0 1 31.686 19.271 Q 32.943 19.076 34.44 19.104 Q 35.845 19.152 37.531 19.623 A 18.704 18.704 0 0 1 37.64 19.654 Q 38.98 20.037 39.909 20.566 A 6.139 6.139 0 0 1 40.44 20.904 Z M 102.34 20.904 L 102.34 18.754 A 7.83 7.83 0 0 0 102.076 16.763 A 8.749 8.749 0 0 0 102.04 16.629 Q 101.74 15.554 101.09 14.679 A 4.816 4.816 0 0 0 99.708 13.434 A 5.709 5.709 0 0 0 99.39 13.254 Q 98.34 12.704 96.79 12.704 Q 95.54 12.704 94.365 12.904 A 25.668 25.668 0 0 0 93.39 13.089 Q 92.945 13.182 92.549 13.285 A 15.159 15.159 0 0 0 92.29 13.354 A 18.26 18.26 0 0 1 91.559 13.527 Q 89.548 13.957 88.793 13.556 A 0.802 0.802 0 0 1 88.39 13.104 Q 88.19 12.504 88.79 11.704 Q 89.271 11.063 90.153 10.486 A 9.032 9.032 0 0 1 90.615 10.204 A 11.181 11.181 0 0 1 91.873 9.592 Q 92.54 9.315 93.31 9.08 A 18.966 18.966 0 0 1 93.565 9.004 A 12.625 12.625 0 0 1 95.969 8.563 A 15.521 15.521 0 0 1 97.34 8.504 Q 99.39 8.504 101.115 9.204 A 9.199 9.199 0 0 1 103.667 10.741 A 8.642 8.642 0 0 1 104.09 11.129 Q 105.34 12.354 106.04 14.004 A 8.957 8.957 0 0 1 106.739 17.406 A 10.237 10.237 0 0 1 106.74 17.554 L 106.74 28.454 Q 106.74 29.125 106.78 30.156 A 87.047 87.047 0 0 0 106.79 30.404 Q 106.84 31.604 107.09 32.554 A 10.841 10.841 0 0 1 107.19 32.958 Q 107.403 33.9 107.264 34.238 A 0.347 0.347 0 0 1 107.19 34.354 Q 106.94 34.554 106.415 34.529 Q 105.89 34.504 105.39 34.304 A 2.338 2.338 0 0 1 104.836 33.992 Q 104.471 33.721 104.115 33.279 Q 103.49 32.504 103.04 31.204 Q 102.79 31.504 102.165 31.979 A 7.691 7.691 0 0 1 101.58 32.38 Q 101.263 32.577 100.89 32.775 A 14.512 14.512 0 0 1 100.59 32.929 Q 99.64 33.404 98.465 33.754 A 9.92 9.92 0 0 1 96.152 34.147 A 11.023 11.023 0 0 1 95.99 34.154 Q 93.39 34.204 91.59 33.629 A 9.827 9.827 0 0 1 90.145 33.045 Q 89.377 32.657 88.786 32.158 A 5.985 5.985 0 0 1 88.665 32.054 A 6.152 6.152 0 0 1 87.194 30.135 A 5.931 5.931 0 0 1 87.015 29.729 Q 86.49 28.404 86.44 26.954 A 7.493 7.493 0 0 1 86.436 26.704 A 7.559 7.559 0 0 1 86.94 24.004 Q 87.49 22.554 88.69 21.454 A 7.527 7.527 0 0 1 90.212 20.385 A 10.429 10.429 0 0 1 91.79 19.704 A 10.532 10.532 0 0 1 93.586 19.271 Q 94.843 19.076 96.34 19.104 Q 97.745 19.152 99.431 19.623 A 18.704 18.704 0 0 1 99.54 19.654 Q 100.88 20.037 101.809 20.566 A 6.139 6.139 0 0 1 102.34 20.904 Z M 77.04 14.704 A 3.965 3.965 0 0 0 76.878 14.582 Q 76.642 14.413 76.265 14.179 Q 75.921 13.966 75.673 13.785 A 4.664 4.664 0 0 1 75.44 13.604 A 2.805 2.805 0 0 1 75.174 13.34 Q 75.048 13.199 74.918 13.023 A 6.282 6.282 0 0 1 74.715 12.729 Q 74.34 12.154 74.115 11.554 A 3.796 3.796 0 0 1 73.954 11.008 A 2.795 2.795 0 0 1 73.89 10.429 A 1.453 1.453 0 0 1 73.918 10.135 Q 73.981 9.828 74.19 9.654 A 0.492 0.492 0 0 1 74.34 9.575 Q 74.626 9.478 75.215 9.554 Q 75.99 9.654 76.69 9.904 A 2.518 2.518 0 0 1 76.769 9.932 Q 76.95 10 77.421 10.19 A 122.339 122.339 0 0 1 77.64 10.279 A 50.864 50.864 0 0 1 78.205 10.512 Q 78.426 10.605 78.622 10.69 A 25.184 25.184 0 0 1 78.99 10.854 Q 79.74 11.254 80.44 11.704 A 1.96 1.96 0 0 1 80.829 12.026 A 1.337 1.337 0 0 1 81.19 12.854 A 115.972 115.972 0 0 1 81.438 18.423 A 130.261 130.261 0 0 1 81.465 20.354 Q 81.49 24.254 81.39 27.954 Q 81.29 30.154 81.09 32.629 Q 80.89 35.104 80.115 37.204 A 9.393 9.393 0 0 1 78.825 39.607 A 8.365 8.365 0 0 1 77.84 40.704 Q 76.398 42.05 73.938 42.241 A 10.112 10.112 0 0 1 73.74 42.254 Q 72.443 42.335 71.114 41.924 A 8.809 8.809 0 0 1 70.49 41.704 Q 68.84 41.054 67.89 39.904 A 5.327 5.327 0 0 1 67.464 39.339 Q 67.257 39.019 67.13 38.705 A 3.031 3.031 0 0 1 67.065 38.529 A 2.684 2.684 0 0 1 67.009 38.338 Q 66.888 37.859 67.058 37.641 A 0.391 0.391 0 0 1 67.09 37.604 Q 67.34 37.354 67.84 37.379 Q 68.34 37.404 68.915 37.554 A 9.418 9.418 0 0 1 69.703 37.795 A 8.13 8.13 0 0 1 69.99 37.904 Q 70.441 38.084 70.729 38.143 A 1.786 1.786 0 0 0 70.79 38.154 A 6.691 6.691 0 0 0 71.556 38.355 Q 72.765 38.593 73.665 38.229 Q 74.84 37.754 75.59 36.679 A 6.18 6.18 0 0 0 76.291 35.333 A 8.495 8.495 0 0 0 76.665 34.029 A 22.184 22.184 0 0 0 77.026 31.568 A 25.307 25.307 0 0 0 77.09 30.704 Q 77.14 29.454 77.19 27.504 Q 77.24 25.554 77.24 23.329 Q 77.24 21.104 77.19 18.854 Q 77.14 16.604 77.04 14.704 Z M 40.49 27.354 L 40.49 23.604 A 21.569 21.569 0 0 0 38.639 23.039 A 26.644 26.644 0 0 0 37.415 22.754 A 14.387 14.387 0 0 0 34.465 22.448 A 14.443 14.443 0 0 0 34.04 22.454 A 9.107 9.107 0 0 0 32.203 22.66 Q 29.422 23.296 29.126 25.863 A 5.583 5.583 0 0 0 29.09 26.504 A 4.8 4.8 0 0 0 29.171 27.423 Q 29.406 28.622 30.315 29.104 A 4.466 4.466 0 0 0 31.251 29.461 Q 32.19 29.713 33.538 29.748 A 17.194 17.194 0 0 0 33.99 29.754 A 7.335 7.335 0 0 0 34.93 29.691 A 9.456 9.456 0 0 0 35.715 29.554 Q 36.64 29.354 37.515 29.029 Q 38.39 28.704 39.165 28.254 Q 39.889 27.834 40.416 27.414 A 7.262 7.262 0 0 0 40.49 27.354 Z M 102.39 27.354 L 102.39 23.604 A 21.569 21.569 0 0 0 100.539 23.039 A 26.644 26.644 0 0 0 99.315 22.754 A 14.387 14.387 0 0 0 96.365 22.448 A 14.443 14.443 0 0 0 95.94 22.454 A 9.107 9.107 0 0 0 94.103 22.66 Q 91.322 23.296 91.026 25.863 A 5.583 5.583 0 0 0 90.99 26.504 A 4.8 4.8 0 0 0 91.071 27.423 Q 91.306 28.622 92.215 29.104 A 4.466 4.466 0 0 0 93.151 29.461 Q 94.09 29.713 95.438 29.748 A 17.194 17.194 0 0 0 95.89 29.754 A 7.335 7.335 0 0 0 96.83 29.691 A 9.456 9.456 0 0 0 97.615 29.554 Q 98.54 29.354 99.415 29.029 Q 100.29 28.704 101.065 28.254 Q 101.789 27.834 102.316 27.414 A 7.262 7.262 0 0 0 102.39 27.354 Z M 140.228 30.93 A 7.813 7.813 0 0 0 139.09 30.854 A 5.281 5.281 0 0 0 138.433 30.892 Q 137.986 30.949 137.635 31.087 A 1.861 1.861 0 0 0 136.615 31.979 Q 136.265 32.665 136.128 33.545 A 7.878 7.878 0 0 0 136.04 34.754 A 2.858 2.858 0 0 0 136.146 35.512 A 3.794 3.794 0 0 0 136.415 36.204 Q 136.79 36.954 137.49 37.404 A 0.31 0.31 0 0 0 137.553 37.435 Q 137.723 37.5 138.115 37.479 A 10.934 10.934 0 0 0 138.545 37.448 A 13.793 13.793 0 0 0 139.14 37.379 Q 139.69 37.304 140.19 37.179 Q 140.549 37.089 140.78 37.012 A 2.969 2.969 0 0 0 140.94 36.954 Q 141.534 36.717 141.863 36.241 A 2.198 2.198 0 0 0 142.19 35.479 A 7.925 7.925 0 0 0 142.232 35.288 Q 142.34 34.764 142.392 34.167 A 13.442 13.442 0 0 0 142.44 33.004 A 1.925 1.925 0 0 0 142.133 31.899 Q 141.616 31.135 140.228 30.93 Z M 75.439 5.717 A 0.786 0.786 0 0 0 75.69 5.954 Q 76.34 6.404 77.065 6.779 A 2.891 2.891 0 0 0 77.557 6.981 Q 78.015 7.119 78.44 7.054 Q 78.89 7.004 79.29 6.679 Q 79.69 6.354 79.99 5.904 Q 80.29 5.454 80.465 5.004 Q 80.565 4.747 80.608 4.523 A 1.702 1.702 0 0 0 80.64 4.204 A 1.06 1.06 0 0 0 80.478 3.634 A 1.38 1.38 0 0 0 80.215 3.329 A 3.881 3.881 0 0 0 79.875 3.062 A 4.614 4.614 0 0 0 79.215 2.679 Q 78.64 2.404 78.015 2.229 Q 77.39 2.054 76.99 2.004 Q 76.71 1.988 76.476 2.033 A 1.256 1.256 0 0 0 75.715 2.479 Q 75.29 3.004 75.165 3.729 A 4.149 4.149 0 0 0 75.155 3.791 Q 75.108 4.088 75.108 4.373 A 3.242 3.242 0 0 0 75.19 5.104 A 2.908 2.908 0 0 0 75.201 5.152 Q 75.289 5.504 75.439 5.717 Z" vector-effect="non-scaling-stroke"/></g></svg>