<svg xmlns="http://www.w3.org/2000/svg" version="1.0" width="512.000000pt" height="512.000000pt" viewBox="0 0 512.000000 512.000000" preserveAspectRatio="xMidYMid meet">

<g transform="translate(0.000000,512.000000) scale(0.100000,-0.100000)" fill="#ffffff" stroke="none">
<path d="M78 5099 c-41 -21 -78 -81 -78 -124 0 -50 248 -1003 284 -1091 78 -192 98 -216 614 -735 259 -261 472 -479 472 -484 0 -6 -292 -302 -649 -660 -703 -703 -692 -690 -714 -821 -8 -47 -8 -82 0 -130 23 -135 29 -143 467 -580 437 -438 445 -444 580 -467 48 -8 83 -8 130 0 131 22 118 11 821 714 358 357 655 649 660 649 6 0 276 -266 600 -591 325 -325 618 -610 652 -635 72 -52 163 -95 254 -120 88 -25 289 -25 379 0 213 57 396 207 490 401 59 122 74 190 74 335 0 179 -40 308 -138 443 -25 34 -310 327 -635 652 -325 324 -591 594 -591 600 0 5 292 302 649 660 703 703 692 690 714 821 8 47 8 82 0 130 -23 135 -29 143 -467 580 -437 438 -445 444 -580 467 -48 8 -83 8 -130 0 -131 -22 -118 -11 -821 -714 -358 -357 -654 -649 -660 -649 -5 0 -219 209 -475 464 -382 381 -480 474 -550 519 -103 66 -144 87 -236 120 -94 34 -1014 267 -1050 267 -16 -1 -46 -10 -66 -21z m4354 -666 c402 -402 406 -406 379 -471 -7 -16 -46 -62 -87 -103 l-74 -74 -238 237 c-130 130 -247 241 -259 247 -12 6 -43 11 -70 11 -54 0 -95 -22 -124 -66 -24 -37 -25 -120 -3 -154 9 -14 121 -130 248 -257 l231 -233 -115 -115 -114 -115 -136 134 c-112 112 -141 135 -173 141 -110 21 -201 -73 -177 -182 7 -28 37 -65 142 -170 l133 -133 -117 -117 -118 -118 -247 247 c-276 274 -280 277 -368 243 -71 -27 -105 -91 -90 -172 6 -33 40 -72 251 -283 l244 -245 -115 -115 -115 -114 -128 126 c-70 70 -140 132 -155 137 -126 48 -244 -70 -196 -196 5 -15 67 -85 137 -155 l126 -128 -112 -113 -112 -112 -237 237 c-131 130 -248 241 -260 247 -12 6 -43 11 -70 11 -54 0 -95 -22 -124 -66 -24 -37 -25 -120 -3 -154 9 -14 121 -130 248 -257 l231 -233 -115 -115 -114 -115 -136 134 c-112 112 -141 135 -173 141 -110 21 -201 -73 -177 -182 7 -28 37 -65 142 -170 l133 -133 -117 -117 -118 -118 -247 247 c-276 274 -280 277 -368 243 -71 -27 -105 -91 -90 -172 6 -33 40 -72 251 -283 l244 -245 -115 -115 -115 -114 -128 126 c-70 70 -140 132 -155 137 -126 48 -244 -70 -196 -196 5 -15 67 -85 137 -155 l126 -128 -74 -75 c-40 -41 -86 -79 -102 -86 -65 -27 -70 -23 -470 378 -250 251 -379 387 -384 406 -3 15 -3 39 0 55 5 18 570 590 1809 1831 991 991 1816 1812 1832 1823 22 14 41 18 69 14 36 -4 68 -34 418 -383z m-3723 241 c373 -95 445 -119 546 -186 75 -48 245 -202 245 -221 0 -16 -631 -647 -647 -647 -19 0 -171 169 -221 245 -25 38 -58 101 -73 140 -21 55 -199 724 -199 749 0 10 -4 10 349 -80z m1276 -884 l260 -260 -328 -328 -327 -327 -262 263 -263 262 325 325 c179 179 327 325 330 325 3 0 122 -117 265 -260z m1862 -1862 c172 -172 313 -317 313 -323 0 -13 -632 -645 -645 -645 -6 0 -152 142 -325 315 l-315 315 325 325 c179 179 327 325 330 325 3 0 146 -141 317 -312z m714 -716 c195 -198 229 -251 251 -379 39 -232 -114 -464 -343 -518 -82 -19 -133 -19 -219 1 -101 23 -172 74 -360 260 l-165 163 325 326 c179 179 328 325 331 325 4 0 85 -80 180 -178z" fill="#ffffff"/>
</g>
</svg>